<svg width="718" xmlns="http://www.w3.org/2000/svg" height="688.479" id="screenshot-66ca72cd-5819-809a-8006-e39d60263aa3" viewBox="0 0 718 688.479" xmlns:xlink="http://www.w3.org/1999/xlink" fill="none" version="1.1"><g id="shape-66ca72cd-5819-809a-8006-e39d60263aa3" rx="0" ry="0"><g id="shape-66ca72cd-5819-809a-8006-e39d60263aa4"><g class="fills" id="fills-66ca72cd-5819-809a-8006-e39d60263aa4"><ellipse cx="359" cy="344" rx="359" ry="344" transform="matrix(1.000000, 0.000000, 0.000000, 1.000000, 0.000000, 0.000000)" style="fill: rgb(193, 247, 237); fill-opacity: 1;"/></g></g><g id="shape-66ca72cd-5819-809a-8006-e39d60263aa5" rx="0" ry="0"><g id="shape-66ca72cd-5819-809a-8006-e39d60263aa6" filter="url(#filter-render-4)" width="992" height="1056" rx="0" ry="0" style="fill: rgb(0, 0, 0);"><defs><filter id="filter-render-4" x="0" y="0" width="1" height="1" filterUnits="objectBoundingBox" color-interpolation-filters="sRGB"><feFlood flood-opacity="0" result="BackgroundImageFix"/><feBlend mode="normal" in="SourceGraphic" in2="BackgroundImageFix" result="shape"/><feColorMatrix in="SourceAlpha" type="matrix" values="0 0 0 0 0 0 0 0 0 0 0 0 0 0 0 0 0 0 127 0" result="hardAlpha"/><feOffset dx="4" dy="4"/><feGaussianBlur stdDeviation="2"/><feComposite in2="hardAlpha" operator="arithmetic" k2="-1" k3="1"/><feColorMatrix type="matrix" values="0 0 0 0 0 0 0 0 0 0 0 0 0 0 0 0 0 0 0.2 0"/><feBlend mode="normal" in2="shape" result="filter_9ae52c69-96a4-8015-8006-dbf0d8b11441"/></filter><filter id="filter-shadow-render-4" x="0" y="0" width="1" height="1" filterUnits="objectBoundingBox" color-interpolation-filters="sRGB"><feFlood flood-opacity="0" result="BackgroundImageFix"/><feBlend mode="normal" in="SourceGraphic" in2="BackgroundImageFix" result="shape"/><feColorMatrix in="SourceAlpha" type="matrix" values="0 0 0 0 0 0 0 0 0 0 0 0 0 0 0 0 0 0 127 0" result="hardAlpha"/><feOffset dx="4" dy="4"/><feGaussianBlur stdDeviation="2"/><feComposite in2="hardAlpha" operator="arithmetic" k2="-1" k3="1"/><feColorMatrix type="matrix" values="0 0 0 0 0 0 0 0 0 0 0 0 0 0 0 0 0 0 0.2 0"/><feBlend mode="normal" in2="shape" result="filter_9ae52c69-96a4-8015-8006-dbf0d8b11441"/></filter></defs><g id="shape-66ca72cd-5819-809a-8006-e39d60263aa8" style="display: none;"><g class="fills" id="fills-66ca72cd-5819-809a-8006-e39d60263aa8"><rect width="706" height="688" x="0.27285077790020296" transform="matrix(1.000000, 0.000000, 0.000000, 1.000000, 0.000000, 0.000000)" style="fill: rgb(159, 198, 191); fill-opacity: 0;" ry="0" fill="none" rx="0" y="0.4785035502163737"/></g><g fill="none" id="strokes-d37954f1-b0c1-8063-8006-e39fed5830a3-66ca72cd-5819-809a-8006-e39d60263aa8" class="strokes"><g class="inner-stroke-shape" transform="matrix(1.000000, 0.000000, 0.000000, 1.000000, 0.000000, 0.000000)"><defs><clipPath id="inner-stroke-render-5-66ca72cd-5819-809a-8006-e39d60263aa8-0"><use href="#stroke-shape-render-5-66ca72cd-5819-809a-8006-e39d60263aa8-0"/></clipPath><rect rx="0" ry="0" x="0.27285077790020296" y="0.4785035502163737" width="706" height="688" id="stroke-shape-render-5-66ca72cd-5819-809a-8006-e39d60263aa8-0" style="fill: none; stroke-width: 30; stroke: rgb(191, 255, 128); stroke-opacity: 0.5;"/></defs><use href="#stroke-shape-render-5-66ca72cd-5819-809a-8006-e39d60263aa8-0" clip-path="url('#inner-stroke-render-5-66ca72cd-5819-809a-8006-e39d60263aa8-0')"/></g></g></g><g id="shape-66ca72cd-5819-809a-8006-e39d60263aa9"><g class="fills" id="fills-66ca72cd-5819-809a-8006-e39d60263aa9"><path d="M371.9472961425781,99.51316833496094C371.2265930175781,101.26316833496094,373.3193664550781,104.00022888183594,375.3774719238281,104.00022888183594C376.9971008300781,104.00022888183594,378.4614562988281,100.50486755371094,377.4702453613281,99.00901794433594C376.4458312988281,97.46409606933594,372.6479797363281,97.81004333496094,371.9472961425781,99.51316833496094M384.8237609863281,101.49998474121094C383.9443664550781,103.63597106933594,385.1487121582031,106.00022888183594,387.1169738769531,106.00022888183594C389.3908996582031,106.00022888183594,390.3413391113281,103.31492614746094,388.7141418457031,101.48704528808594C387.0259094238281,99.59007263183594,385.6079406738281,99.59397888183594,384.8237609863281,101.49998474121094M355.0155334472656,104.57102966308594C352.9818420410156,106.46824645996094,353.2103576660156,107.89622497558594,355.7877502441406,109.41209411621094L357.5802307128906,110.46604919433594L359.4593811035156,108.71409606933594L361.3387756347656,106.96238708496094L360.2081604003906,105.29124450683594C358.5819396972656,102.88792419433594,357.0502014160156,102.67503356933594,355.0155334472656,104.57102966308594M364.4447326660156,107.49998474121094C363.4955139160156,109.80516052246094,364.8285217285156,111.99998474121094,367.1776428222656,111.99998474121094C369.8323059082031,111.99998474121094,370.8276672363281,110.56224060058594,369.9524230957031,107.99119567871094C369.1588439941406,105.66087341308594,365.3412170410156,105.32005310058594,364.4447326660156,107.49998474121094M378.3091125488281,106.70603942871094C376.0244445800781,107.47215270996094,372.8493957519531,113.34812927246094,372.0730285644531,118.24998474121094C371.2846984863281,123.23289489746094,370.0210266113281,124.34397888183594,368.8978576660156,121.04417419433594C368.5311584472656,119.96800231933594,366.7731018066406,117.94309997558594,364.9896545410156,116.54441833496094L361.7469787597656,113.99998474121094L357.0018615722656,113.99998474121094L352.2579650878906,113.99998474121094L352.2579650878906,117.03245544433594C352.2579650878906,121.51219177246094,354.7613830566406,126.32298278808594,359.6844787597656,131.30101013183594C362.0892639160156,133.73411560058594,364.0565490722656,136.00706481933594,364.0565490722656,136.35398864746094C364.0565490722656,136.70115661621094,361.0670471191406,135.52586364746094,357.4139709472656,133.74192810058594L350.7713928222656,130.49998474121094L345.0758361816406,130.63011169433594C338.4540100097656,130.78099060058594,335.9310607910156,132.30516052246094,336.3827209472656,135.88206481933594C336.7806701660156,139.03318786621094,342.1551818847656,142.58421325683594,347.8949279785156,143.48802185058594L352.0619201660156,144.14500427246094L348.9418029785156,149.67430114746094L345.8226623535156,155.20310974121094L345.8226623535156,275.033935546875L345.8226623535156,394.86474609375L343.6913146972656,395.49609375C340.5668029785156,396.419921875,332.5921936035156,395.076171875,329.3163146972656,393.07275390625C327.7518615722656,392.1162109375,325.2750549316406,389.82080078125,323.8128967285156,387.97216796875L321.1532287597656,384.61083984375L321.1156311035156,317.55615234375L321.0770568847656,250.50022888183594L319.5443420410156,247.99998474121094C317.3724670410156,244.45701599121094,317.4515686035156,244.32810974121094,322.2728576660156,243.60911560058594C327.9393615722656,242.76390075683594,330.8065490722656,241.01902770996094,330.8065490722656,238.41404724121094C330.8065490722656,235.83811950683594,328.0692443847656,233.49412536621094,324.0084533691406,232.59324645996094L320.9642639160156,231.91819763183594L322.6673889160156,229.49412536621094C323.6039123535156,228.16111755371094,324.3710021972656,225.93797302246094,324.3710021972656,224.55393981933594L324.3710021972656,222.03831481933594L321.6815490722656,221.40892028808594C320.0150451660156,221.01902770996094,318.0060119628906,221.38206481933594,316.3983459472656,222.36424255371094L313.8036193847656,223.94920349121094L313.0946350097656,220.94114685058594C312.7054748535156,219.28587341308594,311.2811584472656,217.25706481933594,309.9298400878906,216.43211364746094L307.4735412597656,214.93113708496094L304.5804748535156,216.15989685058594L301.6881408691406,217.38914489746094L299.6361389160156,216.19407653808594C295.1935119628906,213.60691833496094,290.0482482910156,216.16209411621094,290.0482482910156,220.95408630371094L290.0482482910156,223.24998474121094L286.8724670410156,222.65818786621094C284.7464904785156,222.26121520996094,283.1505432128906,222.57395935058594,282.0458068847656,223.60398864746094C280.0272521972656,225.48631286621094,280.0194396972656,226.76316833496094,282.0038146972656,230.00022888183594C284.1224670410156,233.45530700683594,283.9935607910156,234.00022888183594,281.0624084472656,234.00022888183594C275.0565490722656,234.00022888183594,274.4144592285156,240.58592224121094,280.1878967285156,242.95506286621094L283.7350158691406,244.41014099121094L282.8695373535156,246.95506286621094C282.3934631347656,248.35520935058594,282.0038146972656,281.675048828125,282.0038146972656,321L282.0038146972656,392.5L283.4142150878906,397.499755859375C287.8109436035156,413.0888671875,298.9129943847656,426.31494140625,313.6451721191406,433.51416015625L321.6893615722656,437.44482421875L333.7557678222656,437.830078125L345.8226623535156,438.2158203125L345.8226623535156,487.10791015625L345.8226623535156,536L344.4818420410156,536.1181640625C343.7450256347656,536.18310546875,315.5755920410156,536.175048828125,281.8836975097656,536.09912109375L220.62661743164062,535.96240234375L219.39321899414062,537.34814453125L218.15884399414062,538.7353515625L219.68814086914062,539.91796875L221.21670532226562,541.10107421875L296.2669982910156,540.76220703125C337.5453186035156,540.576171875,371.8562316894531,540.5908203125,372.5137023925781,540.795166015625C373.2099914550781,541.01123046875,373.7097473144531,543.593017578125,373.7097473144531,546.97607421875C373.7097473144531,551.0380859375,374.1623840332031,552.94775390625,375.2136535644531,553.32373046875C377.5163879394531,554.14794921875,378.0000305175781,553.119140625,378.0000305175781,547.39208984375C378.0000305175781,544.404052734375,378.5515441894531,541.7998046875,379.2720031738281,541.384765625C379.9714660644531,540.982177734375,417.6299133300781,540.58544921875,462.9580383300781,540.503173828125L545.371826171875,540.35400390625L546.541015625,539.26416015625C547.18359375,538.6650390625,547.38525390625,537.68505859375,546.9892578125,537.087158203125L546.2685546875,536L476.0652160644531,536L405.8613586425781,536L406.1426086425781,498.25L406.4233703613281,460.5L420.9033508300781,459.908203125C439.8386535644531,459.1328125,446.7449035644531,456.80908203125,457.0107727050781,447.7568359375C464.4446105957031,441.201171875,468.4228820800781,435.23974609375,471.7812805175781,425.6220703125L474.5322570800781,417.7451171875L474.5322570800781,350.3330078125L474.5322570800781,282.920166015625L472.4341125488281,279.086181640625C468.3916320800781,271.697998046875,460.2036437988281,267.822265625,452.1304016113281,269.47509765625C448.2334289550781,270.273193359375,441.5202941894531,276.22412109375,439.5447082519531,280.632080078125L438.0644836425781,283.93603515625L438.0527648925781,344.218017578125C438.0459289550781,377.373046875,437.7471008300781,406.15673828125,437.3877258300781,408.18115234375C437.0293273925781,410.2060546875,435.3992004394531,413.35595703125,433.7656555175781,415.18115234375L430.7959289550781,418.5L418.3420715332031,418.8359375L405.8872375488281,419.171875L405.8872375488281,287.68798828125L405.8872375488281,156.20310974121094L402.6694641113281,150.49998474121094C400.8994445800781,147.36302185058594,399.4516906738281,144.61839294433594,399.4516906738281,144.39817810058594C399.4516906738281,144.17918395996094,400.9233703613281,143.99998474121094,402.7231750488281,143.99998474121094C408.8657531738281,143.99998474121094,416.6128234863281,139.19212341308594,416.6128234863281,135.38011169433594C416.6128234863281,132.38719177246094,413.3137512207031,130.78318786621094,406.9707336425781,130.69407653808594L401.9507141113281,130.62303161621094L395.7856750488281,133.86717224121094C392.3940734863281,135.65086364746094,389.1387023925781,136.96214294433594,388.5508117675781,136.77903747558594C387.9634094238281,136.59617614746094,389.9389953613281,134.51609802246094,392.9409484863281,132.15599060058594C399.3281555175781,127.13401794433594,401.8511047363281,123.11326599121094,401.3921203613281,118.68601989746094L401.0605773925781,115.49998474121094L398.6899719238281,115.18601989746094C397.3857727050781,115.01316833496094,394.1650695800781,115.75999450683594,391.5315246582031,116.84617614746094C388.8996887207031,117.93113708496094,386.4670715332031,118.56004333496094,386.1269836425781,118.24314880371094C385.7861633300781,117.92625427246094,385.5080871582031,116.01097106933594,385.5080871582031,113.98802185058594C385.5080871582031,109.61595153808594,381.5556945800781,105.61814880371094,378.3091125488281,106.70603942871094M390.5137023925781,108.66722106933594C390.1201477050781,109.03318786621094,389.7983703613281,110.18797302246094,389.7983703613281,111.23313903808594L389.7983703613281,113.13304138183594L392.7480773925781,112.81614685058594L395.6977844238281,112.49998474121094L396.0410461425781,110.25022888183594L396.3828430175781,107.99998474121094L393.8056945800781,107.99998474121094C392.3887023925781,107.99998474121094,390.9065246582031,108.30003356933594,390.5137023925781,108.66722106933594M343.0458068847656,110.37132263183594C341.8529357910156,113.26829528808594,343.0682678222656,115.49998474121094,345.8377990722656,115.49998474121094L348.5038146972656,115.49998474121094L348.5038146972656,112.49998474121094L348.5038146972656,109.49998474121094L346.0863342285156,109.17991638183594C344.6673889160156,108.99192810058594,343.4100646972656,109.48509216308594,343.0458068847656,110.37132263183594M405.0600891113281,110.17112731933594C403.4660949707031,111.65721130371094,403.3335266113281,114.64720153808594,404.8242492675781,115.50608825683594C405.4194641113281,115.84812927246094,406.8952941894531,115.83592224121094,408.1042785644531,115.47923278808594L410.3017883300781,114.82810974121094L409.9717102050781,112.17332458496094C409.6089172363281,109.25706481933594,407.1260070800781,108.24510192871094,405.0600891113281,110.17112731933594M376.8994445800781,113.06199645996094C374.5732727050781,118.29905700683594,375.3647766113281,133.99998474121094,377.9560852050781,133.99998474121094C379.4018859863281,133.99998474121094,382.4546203613281,125.87620544433594,383.0293273925781,120.50022888183594C383.9795227050781,111.60520935058594,379.8008117675781,106.53318786621094,376.8994445800781,113.06199645996094M356.5482482910156,120.27732849121094C356.5482482910156,123.86204528808594,364.0111389160156,132.99998474121094,366.9383850097656,132.99998474121094C368.8648986816406,132.99998474121094,368.7479553222656,127.62425231933594,366.7442932128906,124.01097106933594C363.6454162597656,118.42601013183594,356.5482482910156,115.82688903808594,356.5482482910156,120.27732849121094M392.2063293457031,119.99217224121094C388.7182922363281,121.97508239746094,382.2248840332031,132.27293395996094,383.6343078613281,133.58616638183594C384.5029602050781,134.39622497558594,390.6992492675781,130.86521911621094,393.7666320800781,127.81224060058594C396.4548645019531,125.13816833496094,398.2812805175781,121.05711364746094,397.5991516113281,119.24998474121094C396.9668273925781,117.57395935058594,396.2993469238281,117.66624450683594,392.2063293457031,119.99217224121094M342.9930725097656,121.49998474121094C342.1424865722656,123.56419372558594,343.2953186035156,125.99998474121094,345.1207580566406,125.99998474121094C345.9525451660156,125.99998474121094,347.2328186035156,125.32518005371094,347.9676818847656,124.49998474121094L349.3031311035156,122.99998474121094L347.9676818847656,121.49998474121094C347.2328186035156,120.67503356933594,345.9525451660156,120.00022888183594,345.1207580566406,120.00022888183594C344.2899475097656,120.00022888183594,343.3319396972656,120.67503356933594,342.9930725097656,121.49998474121094M405.2329406738281,121.42601013183594C404.2375793457031,123.84495544433594,405.5737609863281,125.99998474121094,408.0693664550781,125.99998474121094L410.3200988769531,125.99998474121094L409.9800109863281,123.25926208496094C409.5991516113281,120.18309020996094,406.2732238769531,118.89915466308594,405.2329406738281,121.42601013183594M371.6494445800781,132.58299255371094C371.7007141113281,133.74803161621094,371.9551086425781,133.98509216308594,372.2971496582031,133.18797302246094C372.6069641113281,132.46604919433594,372.5683898925781,131.60325622558594,372.2124328613281,131.27098083496094C371.8562316894531,130.93919372558594,371.6030578613281,131.52903747558594,371.6494445800781,132.58299255371094M340.7533264160156,134.16990661621094C339.0619201660156,136.06907653808594,340.3211975097656,137.62986755371094,345.0211486816406,139.46116638183594C351.0458068847656,141.80809020996094,358.6932678222656,141.33128356933594,358.6932678222656,138.60911560058594C358.6932678222656,136.69309997558594,352.6871643066406,133.95310974121094,347.1493225097656,133.34202575683594L341.9964904785156,132.77317810058594L340.7533264160156,134.16990661621094M402.6631164550781,133.93431091308594C397.6894836425781,135.34519958496094,392.8755187988281,138.10813903808594,393.3003234863281,139.30906677246094C393.9824523925781,141.24119567871094,404.2846984863281,141.32810974121094,408.5581359863281,139.43797302246094C413.0036926269531,137.47117614746094,413.4006652832031,135.33299255371094,409.5718078613281,133.97508239746094C406.4802551269531,132.87913513183594,406.3847961425781,132.87913513183594,402.6631164550781,133.93431091308594M367.4637756347656,139.12596130371094C361.7684631347656,140.37913513183594,355.0980529785156,146.28221130371094,352.0025939941406,152.80613708496094L349.8180236816406,157.41014099121094L349.6000061035156,199.45530700683594C349.4801330566406,222.58006286621094,349.3050842285156,276.905029296875,349.2106018066406,320.17822265625L349.0401916503906,398.85595703125L343.3504943847656,399.51904296875C334.7284240722656,400.52294921875,329.0389709472656,398.69287109375,323.1449279785156,393.02197265625L318.1659240722656,388.22998046875L316.9574279785156,382.97509765625L315.7484436035156,377.72119140625L316.4776916503906,315.10986328125L317.2062072753906,252.50022888183594L315.9305725097656,248.89720153808594C315.2294006347656,246.91526794433594,313.4230041503906,244.21507263183594,311.9159240722656,242.89720153808594L309.1776428222656,240.49998474121094L303.6346740722656,240.57200622558594C297.2816467285156,240.65501403808594,289.7938537597656,243.78807067871094,287.6703186035156,247.25315856933594L286.2943420410156,249.49998474121094L286.2943420410156,321L286.2943420410156,392.5L288.2772521972656,398.49609375C292.8358459472656,412.27197265625,302.6459045410156,423.3740234375,316.2601623535156,430.1650390625L322.7621154785156,433.40673828125L335.9010314941406,433.82373046875L349.0401916503906,434.2412109375L349.0401916503906,484.498046875L349.0401916503906,534.755126953125L350.4481506347656,535.84521484375C351.3021545410156,536.50537109375,356.0548400878906,536.84912109375,362.5150451660156,536.71728515625L373.1733703613281,536.5L373.7097473144531,352.5L374.2461242675781,168.50022888183594L375.8547668457031,168.50022888183594L377.4636535644531,168.50022888183594L378.0000305175781,352L378.5364074707031,535.5L388.7258605957031,536.071044921875C394.3301086425781,536.38525390625,399.5137023925781,536.451171875,400.2461242675781,536.2177734375L401.5764465332031,535.79296875L401.8554992675781,487.14697265625L402.1330871582031,438.5L416.0766906738281,437.98583984375L430.0202941894531,437.47119140625L434.5483703613281,435.22900390625C443.9819641113281,430.56005859375,449.6318664550781,424.32177734375,452.5498352050781,415.35595703125L454.1299133300781,410.5L454.1413879394531,356.30908203125L454.1533508300781,302.1181640625L455.3459777832031,301.43115234375C456.0014953613281,301.05322265625,456.9687805175781,301.36376953125,457.4944152832031,302.1220703125C458.0327453613281,302.899169921875,458.3310852050781,327.936767578125,458.1787414550781,359.5L457.9072570800781,415.5L455.0918273925781,421C450.9280090332031,429.130859375,445.4179992675781,434.453125,437.3093566894531,438.1748046875L430.2099914550781,441.43408203125L418.3161926269531,441.966796875L406.4233703613281,442.5L406.4233703613281,449L406.4233703613281,455.5L420.9033508300781,455.45703125L435.3830871582031,455.4140625L442.2593078613281,452.11083984375C455.4917297363281,445.755859375,464.8554992675781,434.85888671875,468.6001281738281,421.4580078125L470.2419738769531,415.580078125L470.2378234863281,349.0400390625L470.2344055175781,282.5L468.0688781738281,279.190185546875C462.7554016113281,271.06396484375,449.5254211425781,271.6953125,444.2256164550781,280.328125L442.8911437988281,282.5L442.3547668457031,346.5L441.8183898925781,410.5L439.6733703613281,414.43505859375C435.4099426269531,422.255859375,429.3315734863281,424.248046875,412.5908508300781,423.31103515625L401.5967102050781,422.69580078125L401.5967102050781,290.47412109375L401.5967102050781,158.25120544433594L400.0373840332031,154.12986755371094C395.4949035644531,142.12815856933594,382.0234680175781,135.92332458496094,367.4637756347656,139.12596130371094M293.9813537597656,218.66697692871094C292.4359436035156,220.10716247558594,293.3956604003906,223.76487731933594,295.8929748535156,225.95213317871094L298.5194396972656,228.25291442871094L299.2467346191406,225.55296325683594C300.4781799316406,220.97898864746094,296.7423400878906,216.09324645996094,293.9813537597656,218.66697692871094M304.0282287597656,221.17698669433594C301.5057678222656,225.03318786621094,301.1900939941406,230.78074645996094,303.3495178222656,233.53318786621094L304.8522033691406,235.44895935058594L307.8529357910156,229.74314880371094L310.8553771972656,224.03611755371094L309.8363342285156,221.35008239746094C308.3592834472656,217.45188903808594,306.4994201660156,217.39598083496094,304.0282287597656,221.17698669433594M315.0448303222656,226.49900817871094C312.9007873535156,227.89915466308594,308.2821350097656,233.95603942871094,308.2821350097656,235.36839294433594C308.2821350097656,237.19700622558594,312.0082092285156,235.52586364746094,315.7901916503906,231.99998474121094C321.7538146972656,226.44017028808594,321.2152404785156,222.46922302246094,315.0448303222656,226.49900817871094M284.6854553222656,227.42698669433594C284.6854553222656,230.32420349121094,296.3133850097656,237.49290466308594,298.1827697753906,235.74900817871094C298.4723205566406,235.47898864746094,298.1258850097656,234.06419372558594,297.4125061035156,232.60520935058594C295.0990295410156,227.87107849121094,284.6854553222656,223.63523864746094,284.6854553222656,227.42698669433594M320.6168518066406,235.67210388183594C316.8670959472656,236.44090270996094,312.5726623535156,238.21604919433594,312.5726623535156,238.99632263183594C312.5726623535156,241.51927185058594,325.1669006347656,240.83738708496094,326.2284240722656,238.25730895996094C326.7550354003906,236.97630310058594,324.7677307128906,234.85520935058594,323.2982482910156,235.13108825683594C323.0033264160156,235.18699645996094,321.7967834472656,235.43016052246094,320.6168518066406,235.67210388183594M280.9786682128906,236.92893981933594C280.5555725097656,237.56614685058594,280.8370666503906,238.79100036621094,281.6017150878906,239.65086364746094L282.9928283691406,241.21409606933594L288.1532287597656,240.75218200683594C293.9354553222656,240.23411560058594,295.2987365722656,239.49485778808594,293.5255432128906,237.84202575683594C291.7826232910156,236.21702575683594,281.9256896972656,235.50022888183594,280.9786682128906,236.92893981933594M299.2508850097656,326.25L298.4808654785156,387.5L299.6639709472656,392.3818359375C302.4408264160156,403.8427734375,310.9305725097656,415.10693359375,319.8241271972656,419.1328125L324.9071350097656,421.43310546875L336.7054748535156,421.466796875L348.5038146972656,421.5L348.5038146972656,419.5L348.5038146972656,417.5L338.6105041503906,417.80810546875L328.7162170410156,418.1162109375L323.9418029785156,416.14697265625C316.7777404785156,413.19287109375,310.0838928222656,406.8798828125,306.5499572753906,399.7470703125L303.4554748535156,393.5L303.3836975097656,330.94873046875C303.3451232910156,296.546142578125,302.9974670410156,267.633056640625,302.6134338378906,266.69921875C302.2284240722656,265.76513671875,301.4884338378906,265,300.9681701660156,265C300.4403381347656,265,299.6810607910156,292.088134765625,299.2508850097656,326.25" fill-rule="evenodd" style="fill: rgb(159, 198, 191); fill-opacity: 0;"/></g><g fill-rule="evenodd" id="strokes-d37954f1-b0c1-8063-8006-e39fed59f26a-66ca72cd-5819-809a-8006-e39d60263aa9" class="strokes"><g class="inner-stroke-shape"><defs><clipPath id="inner-stroke-render-6-66ca72cd-5819-809a-8006-e39d60263aa9-0"><use href="#stroke-shape-render-6-66ca72cd-5819-809a-8006-e39d60263aa9-0"/></clipPath><path d="M371.9472961425781,99.51316833496094C371.2265930175781,101.26316833496094,373.3193664550781,104.00022888183594,375.3774719238281,104.00022888183594C376.9971008300781,104.00022888183594,378.4614562988281,100.50486755371094,377.4702453613281,99.00901794433594C376.4458312988281,97.46409606933594,372.6479797363281,97.81004333496094,371.9472961425781,99.51316833496094M384.8237609863281,101.49998474121094C383.9443664550781,103.63597106933594,385.1487121582031,106.00022888183594,387.1169738769531,106.00022888183594C389.3908996582031,106.00022888183594,390.3413391113281,103.31492614746094,388.7141418457031,101.48704528808594C387.0259094238281,99.59007263183594,385.6079406738281,99.59397888183594,384.8237609863281,101.49998474121094M355.0155334472656,104.57102966308594C352.9818420410156,106.46824645996094,353.2103576660156,107.89622497558594,355.7877502441406,109.41209411621094L357.5802307128906,110.46604919433594L359.4593811035156,108.71409606933594L361.3387756347656,106.96238708496094L360.2081604003906,105.29124450683594C358.5819396972656,102.88792419433594,357.0502014160156,102.67503356933594,355.0155334472656,104.57102966308594M364.4447326660156,107.49998474121094C363.4955139160156,109.80516052246094,364.8285217285156,111.99998474121094,367.1776428222656,111.99998474121094C369.8323059082031,111.99998474121094,370.8276672363281,110.56224060058594,369.9524230957031,107.99119567871094C369.1588439941406,105.66087341308594,365.3412170410156,105.32005310058594,364.4447326660156,107.49998474121094M378.3091125488281,106.70603942871094C376.0244445800781,107.47215270996094,372.8493957519531,113.34812927246094,372.0730285644531,118.24998474121094C371.2846984863281,123.23289489746094,370.0210266113281,124.34397888183594,368.8978576660156,121.04417419433594C368.5311584472656,119.96800231933594,366.7731018066406,117.94309997558594,364.9896545410156,116.54441833496094L361.7469787597656,113.99998474121094L357.0018615722656,113.99998474121094L352.2579650878906,113.99998474121094L352.2579650878906,117.03245544433594C352.2579650878906,121.51219177246094,354.7613830566406,126.32298278808594,359.6844787597656,131.30101013183594C362.0892639160156,133.73411560058594,364.0565490722656,136.00706481933594,364.0565490722656,136.35398864746094C364.0565490722656,136.70115661621094,361.0670471191406,135.52586364746094,357.4139709472656,133.74192810058594L350.7713928222656,130.49998474121094L345.0758361816406,130.63011169433594C338.4540100097656,130.78099060058594,335.9310607910156,132.30516052246094,336.3827209472656,135.88206481933594C336.7806701660156,139.03318786621094,342.1551818847656,142.58421325683594,347.8949279785156,143.48802185058594L352.0619201660156,144.14500427246094L348.9418029785156,149.67430114746094L345.8226623535156,155.20310974121094L345.8226623535156,275.033935546875L345.8226623535156,394.86474609375L343.6913146972656,395.49609375C340.5668029785156,396.419921875,332.5921936035156,395.076171875,329.3163146972656,393.07275390625C327.7518615722656,392.1162109375,325.2750549316406,389.82080078125,323.8128967285156,387.97216796875L321.1532287597656,384.61083984375L321.1156311035156,317.55615234375L321.0770568847656,250.50022888183594L319.5443420410156,247.99998474121094C317.3724670410156,244.45701599121094,317.4515686035156,244.32810974121094,322.2728576660156,243.60911560058594C327.9393615722656,242.76390075683594,330.8065490722656,241.01902770996094,330.8065490722656,238.41404724121094C330.8065490722656,235.83811950683594,328.0692443847656,233.49412536621094,324.0084533691406,232.59324645996094L320.9642639160156,231.91819763183594L322.6673889160156,229.49412536621094C323.6039123535156,228.16111755371094,324.3710021972656,225.93797302246094,324.3710021972656,224.55393981933594L324.3710021972656,222.03831481933594L321.6815490722656,221.40892028808594C320.0150451660156,221.01902770996094,318.0060119628906,221.38206481933594,316.3983459472656,222.36424255371094L313.8036193847656,223.94920349121094L313.0946350097656,220.94114685058594C312.7054748535156,219.28587341308594,311.2811584472656,217.25706481933594,309.9298400878906,216.43211364746094L307.4735412597656,214.93113708496094L304.5804748535156,216.15989685058594L301.6881408691406,217.38914489746094L299.6361389160156,216.19407653808594C295.1935119628906,213.60691833496094,290.0482482910156,216.16209411621094,290.0482482910156,220.95408630371094L290.0482482910156,223.24998474121094L286.8724670410156,222.65818786621094C284.7464904785156,222.26121520996094,283.1505432128906,222.57395935058594,282.0458068847656,223.60398864746094C280.0272521972656,225.48631286621094,280.0194396972656,226.76316833496094,282.0038146972656,230.00022888183594C284.1224670410156,233.45530700683594,283.9935607910156,234.00022888183594,281.0624084472656,234.00022888183594C275.0565490722656,234.00022888183594,274.4144592285156,240.58592224121094,280.1878967285156,242.95506286621094L283.7350158691406,244.41014099121094L282.8695373535156,246.95506286621094C282.3934631347656,248.35520935058594,282.0038146972656,281.675048828125,282.0038146972656,321L282.0038146972656,392.5L283.4142150878906,397.499755859375C287.8109436035156,413.0888671875,298.9129943847656,426.31494140625,313.6451721191406,433.51416015625L321.6893615722656,437.44482421875L333.7557678222656,437.830078125L345.8226623535156,438.2158203125L345.8226623535156,487.10791015625L345.8226623535156,536L344.4818420410156,536.1181640625C343.7450256347656,536.18310546875,315.5755920410156,536.175048828125,281.8836975097656,536.09912109375L220.62661743164062,535.96240234375L219.39321899414062,537.34814453125L218.15884399414062,538.7353515625L219.68814086914062,539.91796875L221.21670532226562,541.10107421875L296.2669982910156,540.76220703125C337.5453186035156,540.576171875,371.8562316894531,540.5908203125,372.5137023925781,540.795166015625C373.2099914550781,541.01123046875,373.7097473144531,543.593017578125,373.7097473144531,546.97607421875C373.7097473144531,551.0380859375,374.1623840332031,552.94775390625,375.2136535644531,553.32373046875C377.5163879394531,554.14794921875,378.0000305175781,553.119140625,378.0000305175781,547.39208984375C378.0000305175781,544.404052734375,378.5515441894531,541.7998046875,379.2720031738281,541.384765625C379.9714660644531,540.982177734375,417.6299133300781,540.58544921875,462.9580383300781,540.503173828125L545.371826171875,540.35400390625L546.541015625,539.26416015625C547.18359375,538.6650390625,547.38525390625,537.68505859375,546.9892578125,537.087158203125L546.2685546875,536L476.0652160644531,536L405.8613586425781,536L406.1426086425781,498.25L406.4233703613281,460.5L420.9033508300781,459.908203125C439.8386535644531,459.1328125,446.7449035644531,456.80908203125,457.0107727050781,447.7568359375C464.4446105957031,441.201171875,468.4228820800781,435.23974609375,471.7812805175781,425.6220703125L474.5322570800781,417.7451171875L474.5322570800781,350.3330078125L474.5322570800781,282.920166015625L472.4341125488281,279.086181640625C468.3916320800781,271.697998046875,460.2036437988281,267.822265625,452.1304016113281,269.47509765625C448.2334289550781,270.273193359375,441.5202941894531,276.22412109375,439.5447082519531,280.632080078125L438.0644836425781,283.93603515625L438.0527648925781,344.218017578125C438.0459289550781,377.373046875,437.7471008300781,406.15673828125,437.3877258300781,408.18115234375C437.0293273925781,410.2060546875,435.3992004394531,413.35595703125,433.7656555175781,415.18115234375L430.7959289550781,418.5L418.3420715332031,418.8359375L405.8872375488281,419.171875L405.8872375488281,287.68798828125L405.8872375488281,156.20310974121094L402.6694641113281,150.49998474121094C400.8994445800781,147.36302185058594,399.4516906738281,144.61839294433594,399.4516906738281,144.39817810058594C399.4516906738281,144.17918395996094,400.9233703613281,143.99998474121094,402.7231750488281,143.99998474121094C408.8657531738281,143.99998474121094,416.6128234863281,139.19212341308594,416.6128234863281,135.38011169433594C416.6128234863281,132.38719177246094,413.3137512207031,130.78318786621094,406.9707336425781,130.69407653808594L401.9507141113281,130.62303161621094L395.7856750488281,133.86717224121094C392.3940734863281,135.65086364746094,389.1387023925781,136.96214294433594,388.5508117675781,136.77903747558594C387.9634094238281,136.59617614746094,389.9389953613281,134.51609802246094,392.9409484863281,132.15599060058594C399.3281555175781,127.13401794433594,401.8511047363281,123.11326599121094,401.3921203613281,118.68601989746094L401.0605773925781,115.49998474121094L398.6899719238281,115.18601989746094C397.3857727050781,115.01316833496094,394.1650695800781,115.75999450683594,391.5315246582031,116.84617614746094C388.8996887207031,117.93113708496094,386.4670715332031,118.56004333496094,386.1269836425781,118.24314880371094C385.7861633300781,117.92625427246094,385.5080871582031,116.01097106933594,385.5080871582031,113.98802185058594C385.5080871582031,109.61595153808594,381.5556945800781,105.61814880371094,378.3091125488281,106.70603942871094M390.5137023925781,108.66722106933594C390.1201477050781,109.03318786621094,389.7983703613281,110.18797302246094,389.7983703613281,111.23313903808594L389.7983703613281,113.13304138183594L392.7480773925781,112.81614685058594L395.6977844238281,112.49998474121094L396.0410461425781,110.25022888183594L396.3828430175781,107.99998474121094L393.8056945800781,107.99998474121094C392.3887023925781,107.99998474121094,390.9065246582031,108.30003356933594,390.5137023925781,108.66722106933594M343.0458068847656,110.37132263183594C341.8529357910156,113.26829528808594,343.0682678222656,115.49998474121094,345.8377990722656,115.49998474121094L348.5038146972656,115.49998474121094L348.5038146972656,112.49998474121094L348.5038146972656,109.49998474121094L346.0863342285156,109.17991638183594C344.6673889160156,108.99192810058594,343.4100646972656,109.48509216308594,343.0458068847656,110.37132263183594M405.0600891113281,110.17112731933594C403.4660949707031,111.65721130371094,403.3335266113281,114.64720153808594,404.8242492675781,115.50608825683594C405.4194641113281,115.84812927246094,406.8952941894531,115.83592224121094,408.1042785644531,115.47923278808594L410.3017883300781,114.82810974121094L409.9717102050781,112.17332458496094C409.6089172363281,109.25706481933594,407.1260070800781,108.24510192871094,405.0600891113281,110.17112731933594M376.8994445800781,113.06199645996094C374.5732727050781,118.29905700683594,375.3647766113281,133.99998474121094,377.9560852050781,133.99998474121094C379.4018859863281,133.99998474121094,382.4546203613281,125.87620544433594,383.0293273925781,120.50022888183594C383.9795227050781,111.60520935058594,379.8008117675781,106.53318786621094,376.8994445800781,113.06199645996094M356.5482482910156,120.27732849121094C356.5482482910156,123.86204528808594,364.0111389160156,132.99998474121094,366.9383850097656,132.99998474121094C368.8648986816406,132.99998474121094,368.7479553222656,127.62425231933594,366.7442932128906,124.01097106933594C363.6454162597656,118.42601013183594,356.5482482910156,115.82688903808594,356.5482482910156,120.27732849121094M392.2063293457031,119.99217224121094C388.7182922363281,121.97508239746094,382.2248840332031,132.27293395996094,383.6343078613281,133.58616638183594C384.5029602050781,134.39622497558594,390.6992492675781,130.86521911621094,393.7666320800781,127.81224060058594C396.4548645019531,125.13816833496094,398.2812805175781,121.05711364746094,397.5991516113281,119.24998474121094C396.9668273925781,117.57395935058594,396.2993469238281,117.66624450683594,392.2063293457031,119.99217224121094M342.9930725097656,121.49998474121094C342.1424865722656,123.56419372558594,343.2953186035156,125.99998474121094,345.1207580566406,125.99998474121094C345.9525451660156,125.99998474121094,347.2328186035156,125.32518005371094,347.9676818847656,124.49998474121094L349.3031311035156,122.99998474121094L347.9676818847656,121.49998474121094C347.2328186035156,120.67503356933594,345.9525451660156,120.00022888183594,345.1207580566406,120.00022888183594C344.2899475097656,120.00022888183594,343.3319396972656,120.67503356933594,342.9930725097656,121.49998474121094M405.2329406738281,121.42601013183594C404.2375793457031,123.84495544433594,405.5737609863281,125.99998474121094,408.0693664550781,125.99998474121094L410.3200988769531,125.99998474121094L409.9800109863281,123.25926208496094C409.5991516113281,120.18309020996094,406.2732238769531,118.89915466308594,405.2329406738281,121.42601013183594M371.6494445800781,132.58299255371094C371.7007141113281,133.74803161621094,371.9551086425781,133.98509216308594,372.2971496582031,133.18797302246094C372.6069641113281,132.46604919433594,372.5683898925781,131.60325622558594,372.2124328613281,131.27098083496094C371.8562316894531,130.93919372558594,371.6030578613281,131.52903747558594,371.6494445800781,132.58299255371094M340.7533264160156,134.16990661621094C339.0619201660156,136.06907653808594,340.3211975097656,137.62986755371094,345.0211486816406,139.46116638183594C351.0458068847656,141.80809020996094,358.6932678222656,141.33128356933594,358.6932678222656,138.60911560058594C358.6932678222656,136.69309997558594,352.6871643066406,133.95310974121094,347.1493225097656,133.34202575683594L341.9964904785156,132.77317810058594L340.7533264160156,134.16990661621094M402.6631164550781,133.93431091308594C397.6894836425781,135.34519958496094,392.8755187988281,138.10813903808594,393.3003234863281,139.30906677246094C393.9824523925781,141.24119567871094,404.2846984863281,141.32810974121094,408.5581359863281,139.43797302246094C413.0036926269531,137.47117614746094,413.4006652832031,135.33299255371094,409.5718078613281,133.97508239746094C406.4802551269531,132.87913513183594,406.3847961425781,132.87913513183594,402.6631164550781,133.93431091308594M367.4637756347656,139.12596130371094C361.7684631347656,140.37913513183594,355.0980529785156,146.28221130371094,352.0025939941406,152.80613708496094L349.8180236816406,157.41014099121094L349.6000061035156,199.45530700683594C349.4801330566406,222.58006286621094,349.3050842285156,276.905029296875,349.2106018066406,320.17822265625L349.0401916503906,398.85595703125L343.3504943847656,399.51904296875C334.7284240722656,400.52294921875,329.0389709472656,398.69287109375,323.1449279785156,393.02197265625L318.1659240722656,388.22998046875L316.9574279785156,382.97509765625L315.7484436035156,377.72119140625L316.4776916503906,315.10986328125L317.2062072753906,252.50022888183594L315.9305725097656,248.89720153808594C315.2294006347656,246.91526794433594,313.4230041503906,244.21507263183594,311.9159240722656,242.89720153808594L309.1776428222656,240.49998474121094L303.6346740722656,240.57200622558594C297.2816467285156,240.65501403808594,289.7938537597656,243.78807067871094,287.6703186035156,247.25315856933594L286.2943420410156,249.49998474121094L286.2943420410156,321L286.2943420410156,392.5L288.2772521972656,398.49609375C292.8358459472656,412.27197265625,302.6459045410156,423.3740234375,316.2601623535156,430.1650390625L322.7621154785156,433.40673828125L335.9010314941406,433.82373046875L349.0401916503906,434.2412109375L349.0401916503906,484.498046875L349.0401916503906,534.755126953125L350.4481506347656,535.84521484375C351.3021545410156,536.50537109375,356.0548400878906,536.84912109375,362.5150451660156,536.71728515625L373.1733703613281,536.5L373.7097473144531,352.5L374.2461242675781,168.50022888183594L375.8547668457031,168.50022888183594L377.4636535644531,168.50022888183594L378.0000305175781,352L378.5364074707031,535.5L388.7258605957031,536.071044921875C394.3301086425781,536.38525390625,399.5137023925781,536.451171875,400.2461242675781,536.2177734375L401.5764465332031,535.79296875L401.8554992675781,487.14697265625L402.1330871582031,438.5L416.0766906738281,437.98583984375L430.0202941894531,437.47119140625L434.5483703613281,435.22900390625C443.9819641113281,430.56005859375,449.6318664550781,424.32177734375,452.5498352050781,415.35595703125L454.1299133300781,410.5L454.1413879394531,356.30908203125L454.1533508300781,302.1181640625L455.3459777832031,301.43115234375C456.0014953613281,301.05322265625,456.9687805175781,301.36376953125,457.4944152832031,302.1220703125C458.0327453613281,302.899169921875,458.3310852050781,327.936767578125,458.1787414550781,359.5L457.9072570800781,415.5L455.0918273925781,421C450.9280090332031,429.130859375,445.4179992675781,434.453125,437.3093566894531,438.1748046875L430.2099914550781,441.43408203125L418.3161926269531,441.966796875L406.4233703613281,442.5L406.4233703613281,449L406.4233703613281,455.5L420.9033508300781,455.45703125L435.3830871582031,455.4140625L442.2593078613281,452.11083984375C455.4917297363281,445.755859375,464.8554992675781,434.85888671875,468.6001281738281,421.4580078125L470.2419738769531,415.580078125L470.2378234863281,349.0400390625L470.2344055175781,282.5L468.0688781738281,279.190185546875C462.7554016113281,271.06396484375,449.5254211425781,271.6953125,444.2256164550781,280.328125L442.8911437988281,282.5L442.3547668457031,346.5L441.8183898925781,410.5L439.6733703613281,414.43505859375C435.4099426269531,422.255859375,429.3315734863281,424.248046875,412.5908508300781,423.31103515625L401.5967102050781,422.69580078125L401.5967102050781,290.47412109375L401.5967102050781,158.25120544433594L400.0373840332031,154.12986755371094C395.4949035644531,142.12815856933594,382.0234680175781,135.92332458496094,367.4637756347656,139.12596130371094M293.9813537597656,218.66697692871094C292.4359436035156,220.10716247558594,293.3956604003906,223.76487731933594,295.8929748535156,225.95213317871094L298.5194396972656,228.25291442871094L299.2467346191406,225.55296325683594C300.4781799316406,220.97898864746094,296.7423400878906,216.09324645996094,293.9813537597656,218.66697692871094M304.0282287597656,221.17698669433594C301.5057678222656,225.03318786621094,301.1900939941406,230.78074645996094,303.3495178222656,233.53318786621094L304.8522033691406,235.44895935058594L307.8529357910156,229.74314880371094L310.8553771972656,224.03611755371094L309.8363342285156,221.35008239746094C308.3592834472656,217.45188903808594,306.4994201660156,217.39598083496094,304.0282287597656,221.17698669433594M315.0448303222656,226.49900817871094C312.9007873535156,227.89915466308594,308.2821350097656,233.95603942871094,308.2821350097656,235.36839294433594C308.2821350097656,237.19700622558594,312.0082092285156,235.52586364746094,315.7901916503906,231.99998474121094C321.7538146972656,226.44017028808594,321.2152404785156,222.46922302246094,315.0448303222656,226.49900817871094M284.6854553222656,227.42698669433594C284.6854553222656,230.32420349121094,296.3133850097656,237.49290466308594,298.1827697753906,235.74900817871094C298.4723205566406,235.47898864746094,298.1258850097656,234.06419372558594,297.4125061035156,232.60520935058594C295.0990295410156,227.87107849121094,284.6854553222656,223.63523864746094,284.6854553222656,227.42698669433594M320.6168518066406,235.67210388183594C316.8670959472656,236.44090270996094,312.5726623535156,238.21604919433594,312.5726623535156,238.99632263183594C312.5726623535156,241.51927185058594,325.1669006347656,240.83738708496094,326.2284240722656,238.25730895996094C326.7550354003906,236.97630310058594,324.7677307128906,234.85520935058594,323.2982482910156,235.13108825683594C323.0033264160156,235.18699645996094,321.7967834472656,235.43016052246094,320.6168518066406,235.67210388183594M280.9786682128906,236.92893981933594C280.5555725097656,237.56614685058594,280.8370666503906,238.79100036621094,281.6017150878906,239.65086364746094L282.9928283691406,241.21409606933594L288.1532287597656,240.75218200683594C293.9354553222656,240.23411560058594,295.2987365722656,239.49485778808594,293.5255432128906,237.84202575683594C291.7826232910156,236.21702575683594,281.9256896972656,235.50022888183594,280.9786682128906,236.92893981933594M299.2508850097656,326.25L298.4808654785156,387.5L299.6639709472656,392.3818359375C302.4408264160156,403.8427734375,310.9305725097656,415.10693359375,319.8241271972656,419.1328125L324.9071350097656,421.43310546875L336.7054748535156,421.466796875L348.5038146972656,421.5L348.5038146972656,419.5L348.5038146972656,417.5L338.6105041503906,417.80810546875L328.7162170410156,418.1162109375L323.9418029785156,416.14697265625C316.7777404785156,413.19287109375,310.0838928222656,406.8798828125,306.5499572753906,399.7470703125L303.4554748535156,393.5L303.3836975097656,330.94873046875C303.3451232910156,296.546142578125,302.9974670410156,267.633056640625,302.6134338378906,266.69921875C302.2284240722656,265.76513671875,301.4884338378906,265,300.9681701660156,265C300.4403381347656,265,299.6810607910156,292.088134765625,299.2508850097656,326.25" id="stroke-shape-render-6-66ca72cd-5819-809a-8006-e39d60263aa9-0" style="fill: none; stroke-width: 30; stroke: rgb(191, 255, 128); stroke-opacity: 0.5;"/></defs><use href="#stroke-shape-render-6-66ca72cd-5819-809a-8006-e39d60263aa9-0" clip-path="url('#inner-stroke-render-6-66ca72cd-5819-809a-8006-e39d60263aa9-0')"/></g></g></g></g><g id="shape-66ca72cd-5819-809a-8006-e39d60263aa7" filter="url(#filter-render-7)" width="992" height="1056" rx="0" ry="0" style="fill: rgb(0, 0, 0);"><defs><filter id="filter-render-7" x="0" y="0" width="1" height="1" filterUnits="objectBoundingBox" color-interpolation-filters="sRGB"><feFlood flood-opacity="0" result="BackgroundImageFix"/><feBlend mode="normal" in="SourceGraphic" in2="BackgroundImageFix" result="shape"/><feColorMatrix in="SourceAlpha" type="matrix" values="0 0 0 0 0 0 0 0 0 0 0 0 0 0 0 0 0 0 127 0" result="hardAlpha"/><feOffset dx="4" dy="4"/><feGaussianBlur stdDeviation="2"/><feComposite in2="hardAlpha" operator="arithmetic" k2="-1" k3="1"/><feColorMatrix type="matrix" values="0 0 0 0 0 0 0 0 0 0 0 0 0 0 0 0 0 0 0.2 0"/><feBlend mode="normal" in2="shape" result="filter_9ae52c69-96a4-8015-8006-dbf0d8b11441"/></filter><filter id="filter-shadow-render-7" x="0" y="0" width="1" height="1" filterUnits="objectBoundingBox" color-interpolation-filters="sRGB"><feFlood flood-opacity="0" result="BackgroundImageFix"/><feBlend mode="normal" in="SourceGraphic" in2="BackgroundImageFix" result="shape"/><feColorMatrix in="SourceAlpha" type="matrix" values="0 0 0 0 0 0 0 0 0 0 0 0 0 0 0 0 0 0 127 0" result="hardAlpha"/><feOffset dx="4" dy="4"/><feGaussianBlur stdDeviation="2"/><feComposite in2="hardAlpha" operator="arithmetic" k2="-1" k3="1"/><feColorMatrix type="matrix" values="0 0 0 0 0 0 0 0 0 0 0 0 0 0 0 0 0 0 0.2 0"/><feBlend mode="normal" in2="shape" result="filter_9ae52c69-96a4-8015-8006-dbf0d8b11441"/></filter></defs><g id="shape-66ca72cd-5819-809a-8006-e39d60263aaa" style="display: none;"><g class="fills" id="fills-66ca72cd-5819-809a-8006-e39d60263aaa"><rect width="706.0000000000002" height="688" x="0.27285077790020296" transform="matrix(1.000000, 0.000000, 0.000000, 1.000000, 0.000000, 0.000000)" style="fill: rgb(92, 112, 97); fill-opacity: 1;" ry="0" fill="none" rx="0" y="0.4785035502163737"/></g></g><g id="shape-66ca72cd-5819-809a-8006-e39d60263aab"><g class="fills" id="fills-66ca72cd-5819-809a-8006-e39d60263aab"><path d="M367.0724182128906,97.51316833496094C366.3666076660156,99.26316833496094,368.4159240722656,101.99998474121094,370.4316711425781,101.99998474121094C372.0178527832031,101.99998474121094,373.4516906738281,98.50511169433594,372.4812316894531,97.00901794433594C371.4780578613281,95.46409606933594,367.7584533691406,95.81004333496094,367.0724182128906,97.51316833496094M379.6826477050781,99.49998474121094C378.8213195800781,101.63597106933594,380.0010070800781,103.99998474121094,381.9284973144531,103.99998474121094C384.1553039550781,103.99998474121094,385.0859680175781,101.31517028808594,383.4924621582031,99.48704528808594C381.8393859863281,97.59007263183594,380.4507141113281,97.59397888183594,379.6826477050781,99.49998474121094M350.4908752441406,102.57102966308594C348.4994201660156,104.46800231933594,348.7230529785156,105.89598083496094,351.2469787597656,107.41209411621094L353.0023498535156,108.46604919433594L354.8426818847656,106.71409606933594L356.6830139160156,104.96214294433594L355.5758361816406,103.29100036621094C353.9833068847656,100.88816833496094,352.4833068847656,100.67503356933594,350.4908752441406,102.57102966308594M359.7250061035156,105.49998474121094C358.7953186035156,107.80516052246094,360.1009826660156,109.99998474121094,362.4012756347656,109.99998474121094C365.0011291503906,109.99998474121094,365.9759826660156,108.56199645996094,365.1188049316406,105.99119567871094C364.3414611816406,103.66111755371094,360.6029357910156,103.32005310058594,359.7250061035156,105.49998474121094M373.3027648925781,104.70603942871094C371.0649719238281,105.47215270996094,367.9559631347656,111.34812927246094,367.1952209472656,116.24998474121094C366.4232482910156,121.23313903808594,365.1859436035156,122.34397888183594,364.0863342285156,119.04417419433594C363.7269592285156,117.96800231933594,362.0052795410156,115.94309997558594,360.2584533691406,114.54417419433594L357.0829162597656,111.99998474121094L352.4364318847656,111.99998474121094L347.7901916503906,111.99998474121094L347.7901916503906,115.03221130371094C347.7901916503906,119.51219177246094,350.2418518066406,124.32298278808594,355.0633850097656,129.30101013183594C357.4183654785156,131.73411560058594,359.3446350097656,134.00706481933594,359.3446350097656,134.35398864746094C359.3446350097656,134.70115661621094,356.4173889160156,133.52610778808594,352.8395080566406,131.74217224121094L346.3343811035156,128.49998474121094L340.7567443847656,128.63011169433594C334.2713928222656,128.78099060058594,331.8011779785156,130.30516052246094,332.2430725097656,133.88206481933594C332.6329650878906,137.03318786621094,337.8963928222656,140.58421325683594,343.5172424316406,141.48802185058594L347.5980529785156,142.14500427246094L344.5423889160156,147.67405700683594L341.4877014160156,153.20310974121094L341.4877014160156,273.0341796875L341.4877014160156,392.864990234375L339.4005432128906,393.49609375C336.3407287597656,394.419921875,328.5311584472656,393.076171875,325.3231506347656,391.072998046875C323.7904357910156,390.1162109375,321.3651428222656,387.821044921875,319.9335021972656,385.97216796875L317.3285217285156,382.611083984375L317.2919006347656,315.55615234375L317.2538146972656,248.49998474121094L315.7528381347656,245.99998474121094C313.6258850097656,242.45701599121094,313.7035217285156,242.32810974121094,318.4252014160156,241.60911560058594C323.9745178222656,240.76414489746094,326.7821350097656,239.01902770996094,326.7821350097656,236.41404724121094C326.7821350097656,233.83811950683594,324.1014709472656,231.49412536621094,320.1246643066406,230.59300231933594L317.1434631347656,229.91819763183594L318.8116760253906,227.49412536621094C319.7286682128906,226.16111755371094,320.4798889160156,223.93797302246094,320.4798889160156,222.55418395996094L320.4798889160156,220.03807067871094L317.8463439941406,219.40916442871094C316.2140197753906,219.01902770996094,314.2464904785156,219.38206481933594,312.6720275878906,220.36399841308594L310.1312561035156,221.94920349121094L309.4369201660156,218.94114685058594C309.0555725097656,217.28611755371094,307.6605529785156,215.25706481933594,306.3373107910156,214.43211364746094L303.9315490722656,212.93113708496094L301.0987854003906,214.16014099121094L298.2660217285156,215.38914489746094L296.2562561035156,214.19407653808594C291.9056701660156,211.60716247558594,286.8668518066406,214.16209411621094,286.8668518066406,218.95408630371094L286.8668518066406,221.24998474121094L283.7567443847656,220.65818786621094C281.6747131347656,220.26097106933594,280.1117248535156,220.57420349121094,279.0296936035156,221.60398864746094C277.0528869628906,223.48606872558594,277.0453186035156,224.76316833496094,278.9886779785156,227.99998474121094C281.0633850097656,231.45506286621094,280.9374084472656,231.99998474121094,278.0668029785156,231.99998474121094C272.1854553222656,231.99998474121094,271.5560607910156,238.58616638183594,277.2103576660156,240.95506286621094L280.6842346191406,242.41014099121094L279.8363342285156,244.95506286621094C279.3700256347656,246.35520935058594,278.9886779785156,279.675048828125,278.9886779785156,319L278.9886779785156,390.5L280.3700256347656,395.5C284.6756896972656,411.0888671875,295.5484924316406,424.31494140625,309.9757385253906,431.51416015625L317.8539123535156,435.445068359375L329.6708068847656,435.830078125L341.4877014160156,436.216064453125L341.4877014160156,485.10791015625L341.4877014160156,534L340.1747131347656,534.1181640625C339.4530334472656,534.18310546875,311.8666076660156,534.175048828125,278.8710021972656,534.09912109375L218.88052368164062,533.9619140625L217.67251586914062,535.34814453125L216.46377563476562,536.73486328125L217.96133422851562,537.91796875L219.45816040039062,539.10107421875L292.9569396972656,538.76220703125C333.3817443847656,538.576171875,366.9833068847656,538.591064453125,367.6271057128906,538.794921875C368.3087463378906,539.010986328125,368.7982482910156,541.593017578125,368.7982482910156,544.97607421875C368.7982482910156,549.0380859375,369.2416076660156,550.947998046875,370.2710266113281,551.323974609375C372.5263977050781,552.14794921875,373.0000305175781,551.119140625,373.0000305175781,545.39208984375C373.0000305175781,542.404052734375,373.5400695800781,539.800048828125,374.2458801269531,539.385009765625C374.9306945800781,538.98193359375,411.8103332519531,538.5849609375,456.2014465332031,538.5029296875L536.9111328125,538.35400390625L538.05615234375,537.26416015625C538.685302734375,536.6650390625,538.8828125,535.68505859375,538.4951171875,535.0869140625L537.78955078125,534L469.0371398925781,534L400.2854309082031,534L400.5605773925781,496.25L400.8357238769531,458.5L415.0161437988281,457.908203125C433.5600891113281,457.133056640625,440.3235168457031,454.80908203125,450.3769836425781,445.757080078125C457.6572570800781,439.201171875,461.5532531738281,433.239990234375,464.8420715332031,423.6220703125L467.5361633300781,415.7451171875L467.5361633300781,348.3330078125L467.5361633300781,280.920166015625L465.4817199707031,277.086181640625C461.5227355957031,269.697998046875,453.5039367675781,265.822021484375,445.5976867675781,267.47509765625C441.7812805175781,268.273193359375,435.2070617675781,274.22412109375,433.2720031738281,278.632080078125L431.8227844238281,281.93603515625L431.8110656738281,342.218017578125C431.8047180175781,375.373046875,431.5117492675781,404.156982421875,431.1596984863281,406.18115234375C430.8088684082031,408.2060546875,429.2124328613281,411.35595703125,427.6125793457031,413.18115234375L424.7041320800781,416.5L412.5078430175781,416.8359375L400.3105773925781,417.171875L400.3105773925781,285.68798828125L400.3105773925781,154.20310974121094L397.1592102050781,148.49998474121094C395.4260559082031,145.36302185058594,394.0080871582031,142.61814880371094,394.0080871582031,142.39817810058594C394.0080871582031,142.17918395996094,395.4492492675781,141.99998474121094,397.2119445800781,141.99998474121094C403.2275695800781,141.99998474121094,410.8144836425781,137.19212341308594,410.8144836425781,133.38011169433594C410.8144836425781,130.38719177246094,407.5835266113281,128.78318786621094,401.3716125488281,128.69407653808594L396.4555969238281,128.62303161621094L390.4179992675781,131.86717224121094C387.0964660644531,133.65110778808594,383.9084777832031,134.96214294433594,383.3330383300781,134.77903747558594C382.7573547363281,134.59617614746094,384.6921691894531,132.51609802246094,387.6321105957031,130.15599060058594C393.8872375488281,125.13401794433594,396.3579406738281,121.11302185058594,395.9082336425781,116.68601989746094L395.5835266113281,113.49998474121094L393.2622375488281,113.18601989746094C391.9848937988281,113.01316833496094,388.8305969238281,113.75999450683594,386.2519836425781,114.84617614746094C383.6743469238281,115.93113708496094,381.2920227050781,116.56004333496094,380.9590148925781,116.24314880371094C380.6250305175781,115.92601013183594,380.3528137207031,114.01097106933594,380.3528137207031,111.98802185058594C380.3528137207031,107.61619567871094,376.4819641113281,103.61814880371094,373.3027648925781,104.70603942871094M385.2549133300781,106.66697692871094C384.8696594238281,107.03318786621094,384.5544738769531,108.18797302246094,384.5544738769531,109.23313903808594L384.5544738769531,111.13304138183594L387.4429016113281,110.81614685058594L390.3315734863281,110.49998474121094L390.6679992675781,108.24998474121094L391.0029602050781,105.99998474121094L388.4790344238281,105.99998474121094C387.0913391113281,105.99998474121094,385.6394348144531,106.30003356933594,385.2549133300781,106.66697692871094M338.7684631347656,108.37107849121094C337.6004943847656,111.26805114746094,338.7904357910156,113.49998474121094,341.5025939941406,113.49998474121094L344.1136779785156,113.49998474121094L344.1136779785156,110.49998474121094L344.1136779785156,107.49998474121094L341.7464904785156,107.18016052246094C340.3565979003906,106.99217224121094,339.1253967285156,107.48509216308594,338.7684631347656,108.37107849121094M399.5005187988281,108.17112731933594C397.9397277832031,109.65721130371094,397.8096008300781,112.64720153808594,399.2695617675781,113.50608825683594C399.8525695800781,113.84812927246094,401.2978820800781,113.83616638183594,402.4817199707031,113.47898864746094L404.6338195800781,112.82810974121094L404.3105773925781,110.17308044433594C403.9553527832031,107.25706481933594,401.5237121582031,106.24510192871094,399.5005187988281,108.17112731933594M371.9223937988281,111.06199645996094C369.6440734863281,116.29905700683594,370.4189758300781,131.99998474121094,372.9570617675781,131.99998474121094C374.3730773925781,131.99998474121094,377.3623352050781,123.87620544433594,377.9253234863281,118.49998474121094C378.8559875488281,109.60520935058594,374.7637023925781,104.53318786621094,371.9223937988281,111.06199645996094M351.9918518066406,118.27708435058594C351.9918518066406,121.86204528808594,359.3006896972656,130.99998474121094,362.1671447753906,130.99998474121094C364.0536193847656,130.99998474121094,363.9391174316406,125.62400817871094,361.9769592285156,122.01097106933594C358.9422912597656,116.42601013183594,351.9918518066406,113.82713317871094,351.9918518066406,118.27708435058594M386.9126281738281,117.99217224121094C383.4966125488281,119.97508239746094,377.1374816894531,130.27317810058594,378.5176086425781,131.58616638183594C379.3686828613281,132.39598083496094,385.4370422363281,128.86497497558594,388.4409484863281,125.81199645996094C391.0732727050781,123.13816833496094,392.8620910644531,119.05711364746094,392.1938781738281,117.24998474121094C391.5742492675781,115.57420349121094,390.9209289550781,115.66600036621094,386.9126281738281,117.99217224121094M338.7169494628906,119.49998474121094C337.8839416503906,121.56419372558594,339.0130920410156,123.99998474121094,340.8006896972656,123.99998474121094C341.6151428222656,123.99998474121094,342.8690490722656,123.32518005371094,343.5887756347656,122.49998474121094L344.8963928222656,120.99998474121094L343.5887756347656,119.49998474121094C342.8690490722656,118.67503356933594,341.6151428222656,117.99998474121094,340.8006896972656,117.99998474121094C339.9867248535156,117.99998474121094,339.0487365722656,118.67503356933594,338.7169494628906,119.49998474121094M399.6699523925781,119.42601013183594C398.6948547363281,121.84519958496094,400.0039367675781,123.99998474121094,402.4480285644531,123.99998474121094L404.6518859863281,123.99998474121094L404.3188781738281,121.25901794433594C403.9458312988281,118.18309020996094,400.6885070800781,116.89915466308594,399.6699523925781,119.42601013183594M366.7806701660156,130.58299255371094C366.8309631347656,131.74803161621094,367.0799865722656,131.98509216308594,367.4149475097656,131.18797302246094C367.7184143066406,130.46604919433594,367.6805725097656,129.60301208496094,367.3319396972656,129.27098083496094C366.9833068847656,128.93919372558594,366.7352600097656,129.52903747558594,366.7806701660156,130.58299255371094M336.5233459472656,132.17015075683594C334.8670959472656,134.06907653808594,336.1002502441406,135.63011169433594,340.7030334472656,137.46116638183594C346.6034240722656,139.80809020996094,354.0926818847656,139.33103942871094,354.0926818847656,136.60911560058594C354.0926818847656,134.69309997558594,348.2103576660156,131.95310974121094,342.7872619628906,131.34202575683594L337.7411193847656,130.77317810058594L336.5233459472656,132.17015075683594M397.1528625488281,131.93406677246094C392.2822570800781,133.34519958496094,387.5681457519531,136.10813903808594,387.9839172363281,137.30906677246094C388.6521301269531,139.24119567871094,398.7412414550781,139.32810974121094,402.9260559082031,137.43797302246094C407.2798156738281,135.47117614746094,407.6684875488281,133.33299255371094,403.9187316894531,131.97508239746094C400.8913879394531,130.87913513183594,400.7978820800781,130.87913513183594,397.1528625488281,131.93406677246094M362.6817932128906,137.12620544433594C357.1041564941406,138.37913513183594,350.5716857910156,144.28221130371094,347.5401916503906,150.80613708496094L345.4007873535156,155.41014099121094L345.1874084472656,197.45506286621094C345.0697326660156,220.58006286621094,344.8985900878906,274.905029296875,344.8060607910156,318.17822265625L344.6390686035156,396.85595703125L339.0668029785156,397.51904296875C330.6234436035156,398.52294921875,325.0511779785156,396.69287109375,319.2792053222656,391.02197265625L314.4032287597656,386.22998046875L313.2193908691406,380.97509765625L312.0355529785156,375.72119140625L312.7499084472656,313.110107421875L313.4632873535156,250.49998474121094L312.2142639160156,246.89720153808594C311.5272521972656,244.91502380371094,309.7582092285156,242.21507263183594,308.2823791503906,240.89720153808594L305.6007385253906,238.49998474121094L300.1722717285156,238.57200622558594C293.9505920410156,238.65501403808594,286.6178283691406,241.78807067871094,284.5379943847656,245.25315856933594L283.1903381347656,247.49998474121094L283.1903381347656,319L283.1903381347656,390.5L285.1327209472656,396.49609375C289.5968322753906,410.27197265625,299.2037658691406,421.3740234375,312.5365295410156,428.1650390625L318.9042053222656,431.406982421875L331.7716369628906,431.823974609375L344.6390686035156,432.2412109375L344.6390686035156,482.498046875L344.6390686035156,532.7548828125L346.0182189941406,533.844970703125C346.8544006347656,534.5048828125,351.5086975097656,534.84912109375,357.8353576660156,534.717041015625L368.2731018066406,534.5L368.7982482910156,350.5L369.3237609863281,166.49998474121094L370.8992004394531,166.49998474121094L372.4748840332031,166.49998474121094L373.0000305175781,350L373.5251770019531,533.5L383.5039367675781,534.071044921875C388.9924621582031,534.385009765625,394.0688781738281,534.451171875,394.7864074707031,534.218017578125L396.0888977050781,533.79296875L396.3618469238281,485.14697265625L396.6340637207031,436.5L410.2893371582031,435.986083984375L423.9446105957031,435.47119140625L428.3794250488281,433.22900390625C437.6177062988281,428.56005859375,443.1511535644531,422.322021484375,446.0083312988281,413.35595703125L447.5556945800781,408.5L447.5671691894531,354.30908203125L447.5786437988281,300.1181640625L448.7466125488281,299.43115234375C449.3887023925781,299.05322265625,450.3359680175781,299.364013671875,450.8506164550781,300.1220703125C451.3779602050781,300.899169921875,451.6699523925781,325.93701171875,451.5207824707031,357.5L451.2549133300781,413.5L448.4975891113281,419C444.4199523925781,427.130859375,439.0239562988281,432.453125,431.0830383300781,436.175048828125L424.1304016113281,439.43408203125L412.4824523925781,439.967041015625L400.8357238769531,440.5L400.8357238769531,447L400.8357238769531,453.5L415.0161437988281,453.45703125L429.1965637207031,453.4140625L435.9306945800781,450.111083984375C448.8896789550781,443.755859375,458.0596008300781,432.85888671875,461.7265930175781,419.4580078125L463.3347473144531,413.580078125L463.3305969238281,347.0400390625L463.3271789550781,280.5L461.2065734863281,277.190185546875C456.0029602050781,269.064208984375,443.0461730957031,269.695068359375,437.8559875488281,278.328125L436.5493469238281,280.5L436.0242004394531,344.5L435.4990539550781,408.5L433.3982238769531,412.43505859375C429.2229309082031,420.255859375,423.2700500488281,422.248046875,406.8755187988281,421.31103515625L396.1089172363281,420.696044921875L396.1089172363281,288.47412109375L396.1089172363281,156.25120544433594L394.5815734863281,152.13011169433594C390.1333312988281,140.12815856933594,376.9399719238281,133.92308044433594,362.6817932128906,137.12620544433594M290.7186584472656,216.66697692871094C289.2049865722656,218.10716247558594,290.1451721191406,221.76512145996094,292.5904846191406,223.95213317871094L295.1629943847656,226.25315856933594L295.8749084472656,223.55320739746094C297.0809631347656,218.97898864746094,293.4222717285156,214.09300231933594,290.7186584472656,216.66697692871094M300.5577697753906,219.17698669433594C298.0873107910156,223.03318786621094,297.7782287597656,228.78099060058594,299.8929748535156,231.53318786621094L301.3646545410156,233.44920349121094L304.3036193847656,227.74314880371094L307.2435607910156,222.03611755371094L306.2457580566406,219.35008239746094C304.7992248535156,215.45213317871094,302.9779357910156,215.39598083496094,300.5577697753906,219.17698669433594M311.3465881347656,224.49900817871094C309.2464904785156,225.89915466308594,304.7235412597656,231.95603942871094,304.7235412597656,233.36814880371094C304.7235412597656,235.19700622558594,308.3729553222656,233.52610778808594,312.0765686035156,229.99998474121094C317.9169006347656,224.44017028808594,317.3895568847656,220.46897888183594,311.3465881347656,224.49900817871094M281.6146545410156,225.42698669433594C281.6146545410156,228.32420349121094,293.0023498535156,235.49314880371094,294.8329162597656,233.74900817871094C295.1166076660156,233.47898864746094,294.7774963378906,232.06419372558594,294.0790100097656,230.60520935058594C291.8131408691406,225.87107849121094,281.6146545410156,221.63499450683594,281.6146545410156,225.42698669433594M316.8033752441406,233.67210388183594C313.1310119628906,234.44114685058594,308.9252014160156,236.21604919433594,308.9252014160156,236.99607849121094C308.9252014160156,239.51902770996094,321.2591857910156,238.83714294433594,322.2989807128906,236.25706481933594C322.8148498535156,234.97605895996094,320.8685607910156,232.85520935058594,319.4293518066406,233.13108825683594C319.1405334472656,233.18699645996094,317.9588928222656,233.43016052246094,316.8033752441406,233.67210388183594M277.9845275878906,234.92918395996094C277.5707092285156,235.56614685058594,277.8460998535156,236.79100036621094,278.5948791503906,237.65110778808594L279.9574279785156,239.21409606933594L285.0106506347656,238.75218200683594C290.6734924316406,238.23411560058594,292.0086975097656,237.49510192871094,290.2723693847656,235.84202575683594C288.5653381347656,234.21702575683594,278.9120178222656,233.49998474121094,277.9845275878906,234.92918395996094M295.8793029785156,324.25L295.1251525878906,385.5L296.2835998535156,390.382080078125C299.0033264160156,401.843017578125,307.3172912597656,413.10693359375,316.0272521972656,417.133056640625L321.0047912597656,419.43310546875L332.5594787597656,419.467041015625L344.1136779785156,419.5L344.1136779785156,417.5L344.1136779785156,415.5L334.4249572753906,415.80810546875L324.7350158691406,416.1162109375L320.0594787597656,414.14697265625C313.0438537597656,411.19287109375,306.4881896972656,404.8798828125,303.0272521972656,397.7470703125L299.9969787597656,391.5L299.9266662597656,328.948974609375C299.8885803222656,294.546142578125,299.5482482910156,265.633056640625,299.1722717285156,264.69921875C298.7953186035156,263.76513671875,298.0704650878906,263,297.5609436035156,263C297.0443420410156,263,296.3004455566406,290.088134765625,295.8793029785156,324.25" fill-rule="evenodd" style="fill: rgb(92, 112, 97); fill-opacity: 1;"/></g></g></g></g></g></svg>